<svg aria-hidden="true" style="position: absolute; width: 0; height: 0; overflow: hidden;" version="1.1" xmlns="http://www.w3.org/2000/svg" xmlns:xlink="http://www.w3.org/1999/xlink">
<defs>
<symbol id="icon-android" viewBox="0 0 32 32">
<path fill="#ff0043" style="fill: var(--color1, #ff0043)" d="M1.633 11.723c-0.882 0-1.597 0.715-1.597 1.597v7.452c0 0.882 0.715 1.597 1.597 1.597s1.597-0.715 1.597-1.597v-7.452c0-0.882-0.715-1.597-1.597-1.597z"></path>
<path fill="#ff0043" style="fill: var(--color1, #ff0043)" d="M19.731 11.723c-0.882 0-1.597 0.715-1.597 1.597v7.452c0 0.882 0.715 1.597 1.597 1.597s1.597-0.715 1.597-1.597v-7.452c0-0.882-0.715-1.597-1.597-1.597z"></path>
<path fill="#ff0043" style="fill: var(--color1, #ff0043)" d="M16.537 11.723h-11.71c-0.294 0-0.532 0.238-0.532 0.532v8.517c-0 1.265 0.89 2.355 2.129 2.608v3.779c0 0.882 0.715 1.597 1.597 1.597s1.597-0.715 1.597-1.597v-3.726h2.129v3.726c0 0.882 0.715 1.597 1.597 1.597s1.597-0.715 1.597-1.597v-3.779c1.239-0.253 2.129-1.343 2.129-2.608v-8.517c-0-0.294-0.238-0.532-0.532-0.532z"></path>
<path fill="#ff0043" style="fill: var(--color1, #ff0043)" d="M14.552 5.412l1.298-1.297c0.211-0.204 0.217-0.541 0.013-0.753s-0.541-0.217-0.753-0.013c-0.004 0.004-0.009 0.009-0.013 0.013l-1.512 1.512c-1.852-0.804-3.954-0.804-5.805 0l-1.512-1.513c-0.211-0.204-0.548-0.198-0.753 0.013-0.199 0.206-0.199 0.533 0 0.74l1.297 1.298c-1.581 1.046-2.527 2.819-2.518 4.714 0 0.294 0.238 0.532 0.532 0.532h11.71c0.294 0 0.532-0.238 0.532-0.532 0.010-1.895-0.937-3.668-2.518-4.714z"></path>
<path fill="#fafafa" style="fill: var(--color2, #fafafa)" d="M8.553 7.997c0 0.294-0.238 0.532-0.532 0.532s-0.532-0.238-0.532-0.532c0-0.294 0.238-0.532 0.532-0.532s0.532 0.238 0.532 0.532z"></path>
<path fill="#fafafa" style="fill: var(--color2, #fafafa)" d="M13.876 7.997c0 0.294-0.238 0.532-0.532 0.532s-0.532-0.238-0.532-0.532c0-0.294 0.238-0.532 0.532-0.532s0.532 0.238 0.532 0.532z"></path>
</symbol>
<symbol id="icon-bg" viewBox="0 0 32 32">
<path fill="#fff8f9" style="fill: var(--color3, #fff8f9)" d="M30.222 16c0 7.855-6.367 14.222-14.222 14.222s-14.222-6.367-14.222-14.222c0-7.855 6.367-14.222 14.222-14.222s14.222 6.367 14.222 14.222z"></path>
</symbol>
<symbol id="icon-bg-1" viewBox="0 0 32 32">
<path fill="#fff" style="fill: var(--color4, #fff)" d="M32 16c0 8.837-7.163 16-16 16s-16-7.163-16-16c0-8.837 7.163-16 16-16s16 7.163 16 16z"></path>
</symbol>
<symbol id="icon-bg-2" viewBox="0 0 32 32">
<path fill="#fff8f9" style="fill: var(--color3, #fff8f9)" d="M32 16c0 8.837-7.163 16-16 16s-16-7.163-16-16c0-8.837 7.163-16 16-16s16 7.163 16 16z"></path>
</symbol>
<symbol id="icon-chat" viewBox="0 0 32 32">
<path fill="#ff0043" style="fill: var(--color1, #ff0043)" d="M30.967 1.965c0.518 0 0.938 0.42 0.938 0.938v18.518c0 0.7-0.739 1.149-1.358 0.839l-6.809-3.404h-2.844v6.569c0 0.518-0.42 0.938-0.938 0.938h-11.79l-6.809 3.404c-0.619 0.309-1.358-0.139-1.358-0.839v-18.518c0-0.518 0.42-0.938 0.938-0.938h10.072v-6.569c0-0.518 0.42-0.938 0.938-0.938h19.018zM19.018 24.486v-5.63h-7.069c-0.518 0-0.938-0.42-0.938-0.938v-6.569h-9.134v16.061l5.649-2.824c0.13-0.065 0.274-0.099 0.42-0.099h11.073zM24.38 17.078l5.649 2.824v-16.061h-17.141v13.138h11.073c0.146 0 0.289 0.034 0.42 0.099z"></path>
<path fill="#ff0043" style="fill: var(--color1, #ff0043)" d="M7.945 20.482h-3.003c-0.518 0-0.938 0.42-0.938 0.938s0.42 0.938 0.938 0.938h3.003c0.518 0 0.938-0.42 0.938-0.938s-0.42-0.938-0.938-0.938z"></path>
<path fill="#ff0043" style="fill: var(--color1, #ff0043)" d="M4.942 18.856h1.501c0.518 0 0.938-0.42 0.938-0.938s-0.42-0.938-0.938-0.938h-1.501c-0.518 0-0.938 0.42-0.938 0.938s0.42 0.938 0.938 0.938z"></path>
<path fill="#ff0043" style="fill: var(--color1, #ff0043)" d="M4.942 15.353h1.501c0.518 0 0.938-0.42 0.938-0.938s-0.42-0.938-0.938-0.938h-1.501c-0.518 0-0.938 0.42-0.938 0.938s0.42 0.938 0.938 0.938z"></path>
<path fill="#ff0043" style="fill: var(--color1, #ff0043)" d="M21.461 7.443c1.265-1.264 3.113-1.134 4.202-0.044 1.149 1.149 1.149 3.009-0 4.158l-3.539 3.539c-0.366 0.366-0.961 0.366-1.327 0l-3.539-3.539c-1.149-1.149-1.149-3.009 0-4.158 1.092-1.091 2.94-1.217 4.203 0.044zM21.461 13.106l2.875-2.875c0.416-0.416 0.416-1.088 0-1.504-0.415-0.415-1.089-0.415-1.504 0l-1.15 1.15c-0.123 0.122-0.32 0.122-0.443 0l-1.15-1.15c-0.415-0.415-1.089-0.415-1.504 0-0.416 0.416-0.416 1.088 0 1.504l2.875 2.875z"></path>
</symbol>
<symbol id="icon-download" viewBox="0 0 32 32">
<path fill="#ff0043" style="fill: var(--color1, #ff0043)" d="M25.833 8.816c-1.080-5.421-6.351-8.939-11.771-7.859-3.965 0.79-7.065 3.888-7.858 7.853-3.844 0.443-6.601 3.918-6.158 7.761 0.408 3.538 3.404 6.206 6.965 6.204h5.004c0.553 0 1.001-0.448 1.001-1.001s-0.448-1.001-1.001-1.001h-5.004c-2.764-0.016-4.991-2.27-4.975-5.034s2.27-4.991 5.034-4.975c0.51 0 0.939-0.384 0.995-0.891 0.508-4.392 4.481-7.541 8.874-7.033 3.693 0.427 6.606 3.34 7.033 7.033 0.084 0.516 0.531 0.894 1.054 0.891 2.764 0 5.004 2.24 5.004 5.004s-2.24 5.004-5.004 5.004h-5.004c-0.553 0-1.001 0.448-1.001 1.001s0.448 1.001 1.001 1.001h5.004c3.869-0.024 6.986-3.18 6.962-7.049-0.022-3.523-2.657-6.482-6.154-6.91z"></path>
<path fill="#ff0043" style="fill: var(--color1, #ff0043)" d="M19.556 24.827l-2.537 2.538v-12.596c0-0.553-0.448-1.001-1.001-1.001s-1.001 0.448-1.001 1.001v12.596l-2.537-2.538c-0.384-0.398-1.018-0.409-1.415-0.025s-0.409 1.017-0.025 1.415c0.008 0.009 0.016 0.017 0.025 0.025l4.245 4.245c0.093 0.093 0.203 0.166 0.323 0.216 0.246 0.104 0.524 0.104 0.771 0 0.121-0.050 0.231-0.124 0.323-0.216l4.244-4.245c0.398-0.384 0.409-1.017 0.025-1.415s-1.018-0.409-1.415-0.025c-0.008 0.008-0.017 0.016-0.025 0.025z"></path>
</symbol>
<symbol id="icon-icon-1" viewBox="0 0 32 32">
<path fill="#ff0043" style="fill: var(--color1, #ff0043)" d="M12.198 8.783c-0.496 0.197-1.011 0.3-1.546 0.286-0.102-0.001-0.141-0.028-0.146-0.136-0.083-1.013 0.188-1.941 0.677-2.814 0.835-1.491 2.105-2.412 3.755-2.817 0.141-0.036 0.287-0.054 0.44-0.074 0.068-0.009 0.137-0.018 0.208-0.028 0.002 0.068 0.006 0.132 0.009 0.194 0.005 0.094 0.009 0.183 0.011 0.271 0.036 1.829-1.146 4.22-3.407 5.118zM20.754 22.060c0.026-0.077 0.052-0.153 0.078-0.228-1.998-0.994-3.217-2.526-3.369-4.79-0.15-2.263 0.883-3.934 2.698-5.199-0.013-0.019-0.031-0.046-0.048-0.070l-0.007-0.010c-0.72-1.010-1.673-1.703-2.844-2.095-0.826-0.277-1.675-0.39-2.546-0.319-0.582 0.046-1.139 0.21-1.687 0.41-0.535 0.198-1.068 0.401-1.601 0.604-0.481 0.184-0.96 0.184-1.441 0.004-0.522-0.196-1.043-0.393-1.563-0.592-0.988-0.38-1.995-0.48-3.031-0.236-1.722 0.403-3.031 1.381-3.959 2.874-0.74 1.188-1.061 2.505-1.143 3.889-0.070 1.154 0.044 2.293 0.282 3.422 0.551 2.626 1.692 4.971 3.393 7.044 0.359 0.437 0.743 0.849 1.2 1.188 0.368 0.272 0.765 0.484 1.219 0.568 0.52 0.098 1.030 0.031 1.522-0.134 0.296-0.1 0.585-0.218 0.875-0.337 0.126-0.052 0.251-0.103 0.378-0.153 1.156-0.457 2.324-0.513 3.499-0.086 0.234 0.085 0.464 0.184 0.694 0.282 0.125 0.053 0.25 0.107 0.376 0.158 0.493 0.201 1.004 0.297 1.537 0.28 0.709-0.025 1.322-0.297 1.855-0.748 0.27-0.227 0.53-0.471 0.754-0.742 1.161-1.388 2.117-2.903 2.747-4.609 0.047-0.125 0.090-0.252 0.132-0.376z"></path>
</symbol>
<symbol id="icon-icon-2" viewBox="0 0 32 32">
<path fill="#ffe7ed" style="fill: var(--color5, #ffe7ed)" d="M13.49 11.522v9.274c0 0.236-0.185 0.422-0.422 0.422h-5.421c-0.16-1.501-0.017-3.836 0.363-4.637 0 0-1.737 0-2.529 0 0-1.762 0.818-4.005 1.644-5.48h5.944c0.236 0 0.422 0.185 0.422 0.422z"></path>
<path fill="#ffe7ed" style="fill: var(--color5, #ffe7ed)" d="M7.647 21.218h-7.226c-0.236 0-0.422-0.186-0.422-0.422v-9.274c0-0.236 0.185-0.422 0.422-0.422h6.703c-0.826 1.475-1.644 3.718-1.644 5.48 0.793 0 2.529 0 2.529 0-0.379 0.801-0.523 3.136-0.363 4.637z"></path>
<path fill="#ff0043" style="fill: var(--color1, #ff0043)" d="M7.999 22.9c-0.104 0-0.207-0.039-0.287-0.12-0.705-0.705-0.675-4.117-0.278-5.778h-1.953c-0.233 0-0.422-0.189-0.422-0.422 0-2.547 1.584-5.974 2.653-7.044 0.164-0.164 0.432-0.164 0.596 0s0.164 0.432 0 0.596c-0.796 0.797-2.227 3.706-2.39 6.026h2.093c0.144 0 0.278 0.073 0.356 0.195s0.088 0.275 0.026 0.405c-0.517 1.105-0.497 4.968-0.083 5.426 0.153 0.169 0.15 0.438-0.016 0.595-0.083 0.079-0.189 0.12-0.293 0.12z"></path>
<path fill="#ff0043" style="fill: var(--color1, #ff0043)" d="M6.745 19.532c-0.803 0-2.26-0.229-3.944-0.871-0.218-0.083-0.326-0.326-0.244-0.544s0.326-0.329 0.545-0.244c1.578 0.602 2.949 0.815 3.643 0.815s2.065-0.213 3.644-0.815c0.216-0.084 0.461 0.024 0.544 0.244 0.083 0.218-0.025 0.461-0.244 0.544-1.684 0.642-3.142 0.871-3.944 0.871z"></path>
<path fill="#ff0043" style="fill: var(--color1, #ff0043)" d="M3.794 14.473c-0.233 0-0.422-0.189-0.422-0.422v-0.843c0-0.233 0.189-0.422 0.422-0.422s0.422 0.189 0.422 0.422v0.843c0 0.233-0.189 0.422-0.422 0.422z"></path>
<path fill="#ff0043" style="fill: var(--color1, #ff0043)" d="M8.853 14.473c-0.233 0-0.422-0.189-0.422-0.422v-0.843c0-0.233 0.189-0.422 0.422-0.422s0.422 0.189 0.422 0.422v0.843c0 0.233-0.189 0.422-0.422 0.422z"></path>
<path fill="#ff0043" style="fill: var(--color1, #ff0043)" d="M24.644 15.507v-4.644l-5.533 0.692v3.952h5.533z"></path>
<path fill="#ff0043" style="fill: var(--color1, #ff0043)" d="M25.435 15.507h6.323v-5.533l-6.323 0.79v4.743z"></path>
<path fill="#ff0043" style="fill: var(--color1, #ff0043)" d="M25.435 16.297v4.743l6.323 0.79v-5.533h-6.323z"></path>
<path fill="#ff0043" style="fill: var(--color1, #ff0043)" d="M24.644 16.297h-5.533v3.952l5.533 0.692v-4.644z"></path>
</symbol>
<symbol id="icon-icon" viewBox="0 0 32 32">
<path fill="#ff0043" style="fill: var(--color1, #ff0043)" d="M21.978 6.416l-10.646-3.194c-0.1-0.030-0.206-0.030-0.306 0l-10.646 3.194c-0.225 0.067-0.38 0.275-0.38 0.51v11.71c0 4.707 7.177 8.894 11.021 10.090 0.104 0.033 0.215 0.033 0.319 0 3.839-1.197 11.016-5.384 11.016-10.090v-11.71c0-0.235-0.154-0.442-0.379-0.51z"></path>
<path fill="#fafafa" style="fill: var(--color2, #fafafa)" d="M10.114 20.233c-0.141 0-0.277-0.056-0.377-0.155l-4.258-4.258c-0.204-0.211-0.198-0.548 0.013-0.753 0.206-0.199 0.533-0.199 0.74 0l3.883 3.881 7.075-7.075c0.204-0.211 0.541-0.217 0.753-0.013s0.217 0.541 0.013 0.753c-0.004 0.004-0.009 0.009-0.013 0.013l-7.452 7.452c-0.1 0.1-0.235 0.155-0.376 0.155z"></path>
</symbol>
<symbol id="icon-icon-11" viewBox="0 0 32 32">
<path fill="#ff0043" style="fill: var(--color1, #ff0043)" d="M12.69 3.945c-6.997 0-12.69 5.123-12.69 11.421 0 2.201 0.696 4.334 2.017 6.177-0.25 2.765-0.92 4.818-1.893 5.79-0.129 0.129-0.161 0.325-0.080 0.488 0.072 0.145 0.22 0.234 0.379 0.234 0.019 0 0.039-0.001 0.059-0.004 0.171-0.024 4.151-0.597 7.029-2.258 1.634 0.659 3.375 0.994 5.179 0.994 6.997 0 12.69-5.123 12.69-11.421s-5.693-11.421-12.69-11.421z"></path>
<path fill="#fff" style="fill: var(--color4, #fff)" d="M6.768 17.058c-0.933 0-1.692-0.759-1.692-1.692s0.759-1.692 1.692-1.692 1.692 0.759 1.692 1.692c0 0.933-0.759 1.692-1.692 1.692z"></path>
<path fill="#fff" style="fill: var(--color4, #fff)" d="M12.69 17.058c-0.933 0-1.692-0.759-1.692-1.692s0.759-1.692 1.692-1.692 1.692 0.759 1.692 1.692c0 0.933-0.759 1.692-1.692 1.692z"></path>
<path fill="#fff" style="fill: var(--color4, #fff)" d="M18.611 17.058c-0.933 0-1.692-0.759-1.692-1.692s0.759-1.692 1.692-1.692 1.692 0.759 1.692 1.692c0 0.933-0.759 1.692-1.692 1.692z"></path>
</symbol>
<symbol id="icon-icon-21" viewBox="0 0 32 32">
<path fill="#ff0043" style="fill: var(--color1, #ff0043)" d="M19.5 8.45v19.6c0 0.42-0.33 0.75-0.75 0.75h-18c-0.42 0-0.75-0.33-0.75-0.75v-24.1c0-0.42 0.33-0.75 0.75-0.75h12l1.5 2.625 1.5 1.125 3.75 1.5z"></path>
<path fill="#d30037" style="fill: var(--color6, #d30037)" d="M19.2 7.85l-6-4.5c-0.135-0.090-0.285-0.15-0.45-0.15v4.5c0 0.414 0.336 0.75 0.75 0.75h6c0-0.24-0.105-0.465-0.3-0.6z"></path>
<path fill="#fff" style="fill: var(--color4, #fff)" d="M7.386 17.802c-0.22-0.351-0.113-0.814 0.239-1.033l3.457-2.159c0.35-0.217 0.814-0.112 1.033 0.24 0.22 0.351 0.113 0.814-0.239 1.033l-3.457 2.159c-0.347 0.217-0.812 0.115-1.033-0.24z"></path>
<path fill="#fff" style="fill: var(--color4, #fff)" d="M11.082 21.791l-3.457-2.159c-0.352-0.22-0.458-0.683-0.239-1.033 0.22-0.352 0.686-0.456 1.033-0.239l3.457 2.159c0.352 0.22 0.459 0.683 0.239 1.033-0.221 0.355-0.685 0.457-1.033 0.239z"></path>
<path fill="#fff" style="fill: var(--color4, #fff)" d="M6.75 20.45c-1.241 0-2.25-1.009-2.25-2.25s1.009-2.25 2.25-2.25c1.241 0 2.25 1.009 2.25 2.25s-1.009 2.25-2.25 2.25z"></path>
<path fill="#fff" style="fill: var(--color4, #fff)" d="M12.75 16.7c-1.241 0-2.25-1.009-2.25-2.25s1.009-2.25 2.25-2.25c1.241 0 2.25 1.009 2.25 2.25s-1.009 2.25-2.25 2.25z"></path>
<path fill="#fff" style="fill: var(--color4, #fff)" d="M12.75 24.2c-1.241 0-2.25-1.009-2.25-2.25s1.009-2.25 2.25-2.25c1.241 0 2.25 1.009 2.25 2.25s-1.009 2.25-2.25 2.25z"></path>
</symbol>
<symbol id="icon-Oval-Copy-2" viewBox="0 0 32 32">
<path fill="#fff" style="fill: var(--color4, #fff)" d="M12.75 24.2c-1.241 0-2.25-1.009-2.25-2.25s1.009-2.25 2.25-2.25c1.241 0 2.25 1.009 2.25 2.25s-1.009 2.25-2.25 2.25z"></path>
</symbol>
<symbol id="icon-Oval-Copy-3" viewBox="0 0 32 32">
<path fill="#fff" style="fill: var(--color4, #fff)" d="M12.75 24.2c-1.241 0-2.25-1.009-2.25-2.25s1.009-2.25 2.25-2.25c1.241 0 2.25 1.009 2.25 2.25s-1.009 2.25-2.25 2.25z"></path>
</symbol>
<symbol id="icon-Oval-Copy" viewBox="0 0 32 32">
<path fill="#fff" style="fill: var(--color4, #fff)" d="M12.75 24.2c-1.241 0-2.25-1.009-2.25-2.25s1.009-2.25 2.25-2.25c1.241 0 2.25 1.009 2.25 2.25s-1.009 2.25-2.25 2.25z"></path>
</symbol>
<symbol id="icon-Oval" viewBox="0 0 32 32">
<path fill="#e0e0e0" style="fill: var(--color7, #e0e0e0)" opacity="0.348958" d="M16.878 1.952c0 0.243-0.197 0.441-0.441 0.441s-0.441-0.197-0.441-0.441c0-0.243 0.197-0.441 0.441-0.441s0.441 0.197 0.441 0.441z"></path>
<path fill="#e0e0e0" style="fill: var(--color7, #e0e0e0)" opacity="0.348958" d="M16.878 3.59c0 0.243-0.197 0.441-0.441 0.441s-0.441-0.197-0.441-0.441c0-0.243 0.197-0.441 0.441-0.441s0.441 0.197 0.441 0.441z"></path>
<path fill="#e0e0e0" style="fill: var(--color7, #e0e0e0)" opacity="0.348958" d="M16.878 5.227c0 0.243-0.197 0.441-0.441 0.441s-0.441-0.197-0.441-0.441c0-0.243 0.197-0.441 0.441-0.441s0.441 0.197 0.441 0.441z"></path>
<path fill="#e0e0e0" style="fill: var(--color7, #e0e0e0)" opacity="0.348958" d="M16.878 6.739c0 0.243-0.197 0.441-0.441 0.441s-0.441-0.197-0.441-0.441c0-0.243 0.197-0.441 0.441-0.441s0.441 0.197 0.441 0.441z"></path>
<path fill="#e0e0e0" style="fill: var(--color7, #e0e0e0)" opacity="0.348958" d="M16.878 8.376c0 0.243-0.197 0.441-0.441 0.441s-0.441-0.197-0.441-0.441c0-0.243 0.197-0.441 0.441-0.441s0.441 0.197 0.441 0.441z"></path>
<path fill="#e0e0e0" style="fill: var(--color7, #e0e0e0)" opacity="0.348958" d="M16.878 10.014c0 0.243-0.197 0.441-0.441 0.441s-0.441-0.197-0.441-0.441c0-0.243 0.197-0.441 0.441-0.441s0.441 0.197 0.441 0.441z"></path>
<path fill="#e0e0e0" style="fill: var(--color7, #e0e0e0)" opacity="0.348958" d="M16.878 11.651c0 0.243-0.197 0.441-0.441 0.441s-0.441-0.197-0.441-0.441c0-0.243 0.197-0.441 0.441-0.441s0.441 0.197 0.441 0.441z"></path>
<path fill="#e0e0e0" style="fill: var(--color7, #e0e0e0)" opacity="0.348958" d="M16.878 13.162c0 0.243-0.197 0.441-0.441 0.441s-0.441-0.197-0.441-0.441c0-0.243 0.197-0.441 0.441-0.441s0.441 0.197 0.441 0.441z"></path>
<path fill="#e0e0e0" style="fill: var(--color7, #e0e0e0)" opacity="0.348958" d="M16.878 14.8c0 0.243-0.197 0.441-0.441 0.441s-0.441-0.197-0.441-0.441c0-0.243 0.197-0.441 0.441-0.441s0.441 0.197 0.441 0.441z"></path>
<path fill="#e0e0e0" style="fill: var(--color7, #e0e0e0)" opacity="0.348958" d="M16.878 16.437c0 0.243-0.197 0.441-0.441 0.441s-0.441-0.197-0.441-0.441c0-0.243 0.197-0.441 0.441-0.441s0.441 0.197 0.441 0.441z"></path>
<path fill="#e0e0e0" style="fill: var(--color7, #e0e0e0)" opacity="0.348958" d="M16.878 17.949c0 0.243-0.197 0.441-0.441 0.441s-0.441-0.197-0.441-0.441c0-0.243 0.197-0.441 0.441-0.441s0.441 0.197 0.441 0.441z"></path>
<path fill="#e0e0e0" style="fill: var(--color7, #e0e0e0)" opacity="0.348958" d="M16.878 19.586c0 0.243-0.197 0.441-0.441 0.441s-0.441-0.197-0.441-0.441c0-0.243 0.197-0.441 0.441-0.441s0.441 0.197 0.441 0.441z"></path>
<path fill="#e0e0e0" style="fill: var(--color7, #e0e0e0)" opacity="0.348958" d="M16.878 21.224c0 0.243-0.197 0.441-0.441 0.441s-0.441-0.197-0.441-0.441c0-0.243 0.197-0.441 0.441-0.441s0.441 0.197 0.441 0.441z"></path>
<path fill="#e0e0e0" style="fill: var(--color7, #e0e0e0)" opacity="0.348958" d="M16.878 22.735c0 0.243-0.197 0.441-0.441 0.441s-0.441-0.197-0.441-0.441c0-0.243 0.197-0.441 0.441-0.441s0.441 0.197 0.441 0.441z"></path>
<path fill="#e0e0e0" style="fill: var(--color7, #e0e0e0)" opacity="0.348958" d="M16.878 24.373c0 0.243-0.197 0.441-0.441 0.441s-0.441-0.197-0.441-0.441c0-0.243 0.197-0.441 0.441-0.441s0.441 0.197 0.441 0.441z"></path>
<path fill="#e0e0e0" style="fill: var(--color7, #e0e0e0)" opacity="0.348958" d="M16.878 26.010c0 0.243-0.197 0.441-0.441 0.441s-0.441-0.197-0.441-0.441c0-0.243 0.197-0.441 0.441-0.441s0.441 0.197 0.441 0.441z"></path>
<path fill="#e0e0e0" style="fill: var(--color7, #e0e0e0)" opacity="0.348958" d="M16.878 27.648c0 0.243-0.197 0.441-0.441 0.441s-0.441-0.197-0.441-0.441c0-0.243 0.197-0.441 0.441-0.441s0.441 0.197 0.441 0.441z"></path>
<path fill="#e0e0e0" style="fill: var(--color7, #e0e0e0)" opacity="0.348958" d="M16.878 29.159c0 0.243-0.197 0.441-0.441 0.441s-0.441-0.197-0.441-0.441c0-0.243 0.197-0.441 0.441-0.441s0.441 0.197 0.441 0.441z"></path>
<path fill="#e0e0e0" style="fill: var(--color7, #e0e0e0)" opacity="0.348958" d="M16.878 30.796c0 0.243-0.197 0.441-0.441 0.441s-0.441-0.197-0.441-0.441c0-0.243 0.197-0.441 0.441-0.441s0.441 0.197 0.441 0.441z"></path>
<path fill="#e0e0e0" style="fill: var(--color7, #e0e0e0)" opacity="0.348958" d="M18.39 0.441c0 0.243-0.197 0.441-0.441 0.441s-0.441-0.197-0.441-0.441c0-0.243 0.197-0.441 0.441-0.441s0.441 0.197 0.441 0.441z"></path>
<path fill="#e0e0e0" style="fill: var(--color7, #e0e0e0)" opacity="0.348958" d="M18.39 1.952c0 0.243-0.197 0.441-0.441 0.441s-0.441-0.197-0.441-0.441c0-0.243 0.197-0.441 0.441-0.441s0.441 0.197 0.441 0.441z"></path>
<path fill="#e0e0e0" style="fill: var(--color7, #e0e0e0)" opacity="0.348958" d="M18.39 3.59c0 0.243-0.197 0.441-0.441 0.441s-0.441-0.197-0.441-0.441c0-0.243 0.197-0.441 0.441-0.441s0.441 0.197 0.441 0.441z"></path>
<path fill="#e0e0e0" style="fill: var(--color7, #e0e0e0)" opacity="0.348958" d="M18.39 5.227c0 0.243-0.197 0.441-0.441 0.441s-0.441-0.197-0.441-0.441c0-0.243 0.197-0.441 0.441-0.441s0.441 0.197 0.441 0.441z"></path>
<path fill="#e0e0e0" style="fill: var(--color7, #e0e0e0)" opacity="0.348958" d="M18.39 6.739c0 0.243-0.197 0.441-0.441 0.441s-0.441-0.197-0.441-0.441c0-0.243 0.197-0.441 0.441-0.441s0.441 0.197 0.441 0.441z"></path>
<path fill="#e0e0e0" style="fill: var(--color7, #e0e0e0)" opacity="0.348958" d="M18.39 8.376c0 0.243-0.197 0.441-0.441 0.441s-0.441-0.197-0.441-0.441c0-0.243 0.197-0.441 0.441-0.441s0.441 0.197 0.441 0.441z"></path>
<path fill="#e0e0e0" style="fill: var(--color7, #e0e0e0)" opacity="0.348958" d="M18.39 10.014c0 0.243-0.197 0.441-0.441 0.441s-0.441-0.197-0.441-0.441c0-0.243 0.197-0.441 0.441-0.441s0.441 0.197 0.441 0.441z"></path>
<path fill="#e0e0e0" style="fill: var(--color7, #e0e0e0)" opacity="0.348958" d="M18.39 11.651c0 0.243-0.197 0.441-0.441 0.441s-0.441-0.197-0.441-0.441c0-0.243 0.197-0.441 0.441-0.441s0.441 0.197 0.441 0.441z"></path>
<path fill="#e0e0e0" style="fill: var(--color7, #e0e0e0)" opacity="0.348958" d="M18.39 13.162c0 0.243-0.197 0.441-0.441 0.441s-0.441-0.197-0.441-0.441c0-0.243 0.197-0.441 0.441-0.441s0.441 0.197 0.441 0.441z"></path>
<path fill="#e0e0e0" style="fill: var(--color7, #e0e0e0)" opacity="0.348958" d="M18.39 14.8c0 0.243-0.197 0.441-0.441 0.441s-0.441-0.197-0.441-0.441c0-0.243 0.197-0.441 0.441-0.441s0.441 0.197 0.441 0.441z"></path>
<path fill="#e0e0e0" style="fill: var(--color7, #e0e0e0)" opacity="0.348958" d="M18.39 16.437c0 0.243-0.197 0.441-0.441 0.441s-0.441-0.197-0.441-0.441c0-0.243 0.197-0.441 0.441-0.441s0.441 0.197 0.441 0.441z"></path>
<path fill="#e0e0e0" style="fill: var(--color7, #e0e0e0)" opacity="0.348958" d="M18.39 17.949c0 0.243-0.197 0.441-0.441 0.441s-0.441-0.197-0.441-0.441c0-0.243 0.197-0.441 0.441-0.441s0.441 0.197 0.441 0.441z"></path>
<path fill="#e0e0e0" style="fill: var(--color7, #e0e0e0)" opacity="0.348958" d="M18.39 19.586c0 0.243-0.197 0.441-0.441 0.441s-0.441-0.197-0.441-0.441c0-0.243 0.197-0.441 0.441-0.441s0.441 0.197 0.441 0.441z"></path>
<path fill="#e0e0e0" style="fill: var(--color7, #e0e0e0)" opacity="0.348958" d="M18.39 21.224c0 0.243-0.197 0.441-0.441 0.441s-0.441-0.197-0.441-0.441c0-0.243 0.197-0.441 0.441-0.441s0.441 0.197 0.441 0.441z"></path>
<path fill="#e0e0e0" style="fill: var(--color7, #e0e0e0)" opacity="0.348958" d="M18.39 22.735c0 0.243-0.197 0.441-0.441 0.441s-0.441-0.197-0.441-0.441c0-0.243 0.197-0.441 0.441-0.441s0.441 0.197 0.441 0.441z"></path>
<path fill="#e0e0e0" style="fill: var(--color7, #e0e0e0)" opacity="0.348958" d="M18.39 24.373c0 0.243-0.197 0.441-0.441 0.441s-0.441-0.197-0.441-0.441c0-0.243 0.197-0.441 0.441-0.441s0.441 0.197 0.441 0.441z"></path>
<path fill="#e0e0e0" style="fill: var(--color7, #e0e0e0)" opacity="0.348958" d="M18.39 26.010c0 0.243-0.197 0.441-0.441 0.441s-0.441-0.197-0.441-0.441c0-0.243 0.197-0.441 0.441-0.441s0.441 0.197 0.441 0.441z"></path>
<path fill="#e0e0e0" style="fill: var(--color7, #e0e0e0)" opacity="0.348958" d="M18.39 27.648c0 0.243-0.197 0.441-0.441 0.441s-0.441-0.197-0.441-0.441c0-0.243 0.197-0.441 0.441-0.441s0.441 0.197 0.441 0.441z"></path>
<path fill="#e0e0e0" style="fill: var(--color7, #e0e0e0)" opacity="0.348958" d="M18.39 29.159c0 0.243-0.197 0.441-0.441 0.441s-0.441-0.197-0.441-0.441c0-0.243 0.197-0.441 0.441-0.441s0.441 0.197 0.441 0.441z"></path>
<path fill="#e0e0e0" style="fill: var(--color7, #e0e0e0)" opacity="0.348958" d="M18.39 30.796c0 0.243-0.197 0.441-0.441 0.441s-0.441-0.197-0.441-0.441c0-0.243 0.197-0.441 0.441-0.441s0.441 0.197 0.441 0.441z"></path>
<path fill="#e0e0e0" style="fill: var(--color7, #e0e0e0)" opacity="0.348958" d="M20.027 0.441c0 0.243-0.197 0.441-0.441 0.441s-0.441-0.197-0.441-0.441c0-0.243 0.197-0.441 0.441-0.441s0.441 0.197 0.441 0.441z"></path>
<path fill="#e0e0e0" style="fill: var(--color7, #e0e0e0)" opacity="0.348958" d="M20.027 1.952c0 0.243-0.197 0.441-0.441 0.441s-0.441-0.197-0.441-0.441c0-0.243 0.197-0.441 0.441-0.441s0.441 0.197 0.441 0.441z"></path>
<path fill="#e0e0e0" style="fill: var(--color7, #e0e0e0)" opacity="0.348958" d="M20.027 3.59c0 0.243-0.197 0.441-0.441 0.441s-0.441-0.197-0.441-0.441c0-0.243 0.197-0.441 0.441-0.441s0.441 0.197 0.441 0.441z"></path>
<path fill="#e0e0e0" style="fill: var(--color7, #e0e0e0)" opacity="0.348958" d="M20.027 5.227c0 0.243-0.197 0.441-0.441 0.441s-0.441-0.197-0.441-0.441c0-0.243 0.197-0.441 0.441-0.441s0.441 0.197 0.441 0.441z"></path>
<path fill="#e0e0e0" style="fill: var(--color7, #e0e0e0)" opacity="0.348958" d="M20.027 6.739c0 0.243-0.197 0.441-0.441 0.441s-0.441-0.197-0.441-0.441c0-0.243 0.197-0.441 0.441-0.441s0.441 0.197 0.441 0.441z"></path>
<path fill="#e0e0e0" style="fill: var(--color7, #e0e0e0)" opacity="0.348958" d="M20.027 8.376c0 0.243-0.197 0.441-0.441 0.441s-0.441-0.197-0.441-0.441c0-0.243 0.197-0.441 0.441-0.441s0.441 0.197 0.441 0.441z"></path>
<path fill="#e0e0e0" style="fill: var(--color7, #e0e0e0)" opacity="0.348958" d="M20.027 10.014c0 0.243-0.197 0.441-0.441 0.441s-0.441-0.197-0.441-0.441c0-0.243 0.197-0.441 0.441-0.441s0.441 0.197 0.441 0.441z"></path>
<path fill="#e0e0e0" style="fill: var(--color7, #e0e0e0)" opacity="0.348958" d="M20.027 11.651c0 0.243-0.197 0.441-0.441 0.441s-0.441-0.197-0.441-0.441c0-0.243 0.197-0.441 0.441-0.441s0.441 0.197 0.441 0.441z"></path>
<path fill="#e0e0e0" style="fill: var(--color7, #e0e0e0)" opacity="0.348958" d="M20.027 13.162c0 0.243-0.197 0.441-0.441 0.441s-0.441-0.197-0.441-0.441c0-0.243 0.197-0.441 0.441-0.441s0.441 0.197 0.441 0.441z"></path>
<path fill="#e0e0e0" style="fill: var(--color7, #e0e0e0)" opacity="0.348958" d="M20.027 14.8c0 0.243-0.197 0.441-0.441 0.441s-0.441-0.197-0.441-0.441c0-0.243 0.197-0.441 0.441-0.441s0.441 0.197 0.441 0.441z"></path>
<path fill="#e0e0e0" style="fill: var(--color7, #e0e0e0)" opacity="0.348958" d="M20.027 16.437c0 0.243-0.197 0.441-0.441 0.441s-0.441-0.197-0.441-0.441c0-0.243 0.197-0.441 0.441-0.441s0.441 0.197 0.441 0.441z"></path>
<path fill="#e0e0e0" style="fill: var(--color7, #e0e0e0)" opacity="0.348958" d="M20.027 17.949c0 0.243-0.197 0.441-0.441 0.441s-0.441-0.197-0.441-0.441c0-0.243 0.197-0.441 0.441-0.441s0.441 0.197 0.441 0.441z"></path>
<path fill="#e0e0e0" style="fill: var(--color7, #e0e0e0)" opacity="0.348958" d="M20.027 19.586c0 0.243-0.197 0.441-0.441 0.441s-0.441-0.197-0.441-0.441c0-0.243 0.197-0.441 0.441-0.441s0.441 0.197 0.441 0.441z"></path>
<path fill="#e0e0e0" style="fill: var(--color7, #e0e0e0)" opacity="0.348958" d="M20.027 21.224c0 0.243-0.197 0.441-0.441 0.441s-0.441-0.197-0.441-0.441c0-0.243 0.197-0.441 0.441-0.441s0.441 0.197 0.441 0.441z"></path>
<path fill="#e0e0e0" style="fill: var(--color7, #e0e0e0)" opacity="0.348958" d="M20.027 22.735c0 0.243-0.197 0.441-0.441 0.441s-0.441-0.197-0.441-0.441c0-0.243 0.197-0.441 0.441-0.441s0.441 0.197 0.441 0.441z"></path>
<path fill="#e0e0e0" style="fill: var(--color7, #e0e0e0)" opacity="0.348958" d="M20.027 24.373c0 0.243-0.197 0.441-0.441 0.441s-0.441-0.197-0.441-0.441c0-0.243 0.197-0.441 0.441-0.441s0.441 0.197 0.441 0.441z"></path>
<path fill="#e0e0e0" style="fill: var(--color7, #e0e0e0)" opacity="0.348958" d="M20.027 26.010c0 0.243-0.197 0.441-0.441 0.441s-0.441-0.197-0.441-0.441c0-0.243 0.197-0.441 0.441-0.441s0.441 0.197 0.441 0.441z"></path>
<path fill="#e0e0e0" style="fill: var(--color7, #e0e0e0)" opacity="0.348958" d="M20.027 27.648c0 0.243-0.197 0.441-0.441 0.441s-0.441-0.197-0.441-0.441c0-0.243 0.197-0.441 0.441-0.441s0.441 0.197 0.441 0.441z"></path>
<path fill="#e0e0e0" style="fill: var(--color7, #e0e0e0)" opacity="0.348958" d="M20.027 29.159c0 0.243-0.197 0.441-0.441 0.441s-0.441-0.197-0.441-0.441c0-0.243 0.197-0.441 0.441-0.441s0.441 0.197 0.441 0.441z"></path>
<path fill="#e0e0e0" style="fill: var(--color7, #e0e0e0)" opacity="0.348958" d="M20.027 30.796c0 0.243-0.197 0.441-0.441 0.441s-0.441-0.197-0.441-0.441c0-0.243 0.197-0.441 0.441-0.441s0.441 0.197 0.441 0.441z"></path>
<path fill="#e0e0e0" style="fill: var(--color7, #e0e0e0)" opacity="0.348958" d="M21.665 0.441c0 0.243-0.197 0.441-0.441 0.441s-0.441-0.197-0.441-0.441c0-0.243 0.197-0.441 0.441-0.441s0.441 0.197 0.441 0.441z"></path>
<path fill="#e0e0e0" style="fill: var(--color7, #e0e0e0)" opacity="0.348958" d="M21.665 1.952c0 0.243-0.197 0.441-0.441 0.441s-0.441-0.197-0.441-0.441c0-0.243 0.197-0.441 0.441-0.441s0.441 0.197 0.441 0.441z"></path>
<path fill="#e0e0e0" style="fill: var(--color7, #e0e0e0)" opacity="0.348958" d="M21.665 3.59c0 0.243-0.197 0.441-0.441 0.441s-0.441-0.197-0.441-0.441c0-0.243 0.197-0.441 0.441-0.441s0.441 0.197 0.441 0.441z"></path>
<path fill="#e0e0e0" style="fill: var(--color7, #e0e0e0)" opacity="0.348958" d="M21.665 5.227c0 0.243-0.197 0.441-0.441 0.441s-0.441-0.197-0.441-0.441c0-0.243 0.197-0.441 0.441-0.441s0.441 0.197 0.441 0.441z"></path>
<path fill="#e0e0e0" style="fill: var(--color7, #e0e0e0)" opacity="0.348958" d="M21.665 6.739c0 0.243-0.197 0.441-0.441 0.441s-0.441-0.197-0.441-0.441c0-0.243 0.197-0.441 0.441-0.441s0.441 0.197 0.441 0.441z"></path>
<path fill="#e0e0e0" style="fill: var(--color7, #e0e0e0)" opacity="0.348958" d="M21.665 8.376c0 0.243-0.197 0.441-0.441 0.441s-0.441-0.197-0.441-0.441c0-0.243 0.197-0.441 0.441-0.441s0.441 0.197 0.441 0.441z"></path>
<path fill="#e0e0e0" style="fill: var(--color7, #e0e0e0)" opacity="0.348958" d="M21.665 10.014c0 0.243-0.197 0.441-0.441 0.441s-0.441-0.197-0.441-0.441c0-0.243 0.197-0.441 0.441-0.441s0.441 0.197 0.441 0.441z"></path>
<path fill="#e0e0e0" style="fill: var(--color7, #e0e0e0)" opacity="0.348958" d="M21.665 11.651c0 0.243-0.197 0.441-0.441 0.441s-0.441-0.197-0.441-0.441c0-0.243 0.197-0.441 0.441-0.441s0.441 0.197 0.441 0.441z"></path>
<path fill="#e0e0e0" style="fill: var(--color7, #e0e0e0)" opacity="0.348958" d="M21.665 13.162c0 0.243-0.197 0.441-0.441 0.441s-0.441-0.197-0.441-0.441c0-0.243 0.197-0.441 0.441-0.441s0.441 0.197 0.441 0.441z"></path>
<path fill="#e0e0e0" style="fill: var(--color7, #e0e0e0)" opacity="0.348958" d="M21.665 14.8c0 0.243-0.197 0.441-0.441 0.441s-0.441-0.197-0.441-0.441c0-0.243 0.197-0.441 0.441-0.441s0.441 0.197 0.441 0.441z"></path>
<path fill="#e0e0e0" style="fill: var(--color7, #e0e0e0)" opacity="0.348958" d="M21.665 16.437c0 0.243-0.197 0.441-0.441 0.441s-0.441-0.197-0.441-0.441c0-0.243 0.197-0.441 0.441-0.441s0.441 0.197 0.441 0.441z"></path>
<path fill="#e0e0e0" style="fill: var(--color7, #e0e0e0)" opacity="0.348958" d="M21.665 17.949c0 0.243-0.197 0.441-0.441 0.441s-0.441-0.197-0.441-0.441c0-0.243 0.197-0.441 0.441-0.441s0.441 0.197 0.441 0.441z"></path>
<path fill="#e0e0e0" style="fill: var(--color7, #e0e0e0)" opacity="0.348958" d="M21.665 19.586c0 0.243-0.197 0.441-0.441 0.441s-0.441-0.197-0.441-0.441c0-0.243 0.197-0.441 0.441-0.441s0.441 0.197 0.441 0.441z"></path>
<path fill="#e0e0e0" style="fill: var(--color7, #e0e0e0)" opacity="0.348958" d="M21.665 21.224c0 0.243-0.197 0.441-0.441 0.441s-0.441-0.197-0.441-0.441c0-0.243 0.197-0.441 0.441-0.441s0.441 0.197 0.441 0.441z"></path>
<path fill="#e0e0e0" style="fill: var(--color7, #e0e0e0)" opacity="0.348958" d="M21.665 22.735c0 0.243-0.197 0.441-0.441 0.441s-0.441-0.197-0.441-0.441c0-0.243 0.197-0.441 0.441-0.441s0.441 0.197 0.441 0.441z"></path>
<path fill="#e0e0e0" style="fill: var(--color7, #e0e0e0)" opacity="0.348958" d="M21.665 24.373c0 0.243-0.197 0.441-0.441 0.441s-0.441-0.197-0.441-0.441c0-0.243 0.197-0.441 0.441-0.441s0.441 0.197 0.441 0.441z"></path>
<path fill="#e0e0e0" style="fill: var(--color7, #e0e0e0)" opacity="0.348958" d="M21.665 26.010c0 0.243-0.197 0.441-0.441 0.441s-0.441-0.197-0.441-0.441c0-0.243 0.197-0.441 0.441-0.441s0.441 0.197 0.441 0.441z"></path>
<path fill="#e0e0e0" style="fill: var(--color7, #e0e0e0)" opacity="0.348958" d="M21.665 27.648c0 0.243-0.197 0.441-0.441 0.441s-0.441-0.197-0.441-0.441c0-0.243 0.197-0.441 0.441-0.441s0.441 0.197 0.441 0.441z"></path>
<path fill="#e0e0e0" style="fill: var(--color7, #e0e0e0)" opacity="0.348958" d="M21.665 29.159c0 0.243-0.197 0.441-0.441 0.441s-0.441-0.197-0.441-0.441c0-0.243 0.197-0.441 0.441-0.441s0.441 0.197 0.441 0.441z"></path>
<path fill="#e0e0e0" style="fill: var(--color7, #e0e0e0)" opacity="0.348958" d="M21.665 30.796c0 0.243-0.197 0.441-0.441 0.441s-0.441-0.197-0.441-0.441c0-0.243 0.197-0.441 0.441-0.441s0.441 0.197 0.441 0.441z"></path>
<path fill="#e0e0e0" style="fill: var(--color7, #e0e0e0)" opacity="0.348958" d="M23.176 0.441c0 0.243-0.197 0.441-0.441 0.441s-0.441-0.197-0.441-0.441c0-0.243 0.197-0.441 0.441-0.441s0.441 0.197 0.441 0.441z"></path>
<path fill="#e0e0e0" style="fill: var(--color7, #e0e0e0)" opacity="0.348958" d="M23.176 1.952c0 0.243-0.197 0.441-0.441 0.441s-0.441-0.197-0.441-0.441c0-0.243 0.197-0.441 0.441-0.441s0.441 0.197 0.441 0.441z"></path>
<path fill="#e0e0e0" style="fill: var(--color7, #e0e0e0)" opacity="0.348958" d="M23.176 3.59c0 0.243-0.197 0.441-0.441 0.441s-0.441-0.197-0.441-0.441c0-0.243 0.197-0.441 0.441-0.441s0.441 0.197 0.441 0.441z"></path>
<path fill="#e0e0e0" style="fill: var(--color7, #e0e0e0)" opacity="0.348958" d="M23.176 5.227c0 0.243-0.197 0.441-0.441 0.441s-0.441-0.197-0.441-0.441c0-0.243 0.197-0.441 0.441-0.441s0.441 0.197 0.441 0.441z"></path>
<path fill="#e0e0e0" style="fill: var(--color7, #e0e0e0)" opacity="0.348958" d="M23.176 6.739c0 0.243-0.197 0.441-0.441 0.441s-0.441-0.197-0.441-0.441c0-0.243 0.197-0.441 0.441-0.441s0.441 0.197 0.441 0.441z"></path>
<path fill="#e0e0e0" style="fill: var(--color7, #e0e0e0)" opacity="0.348958" d="M23.176 8.376c0 0.243-0.197 0.441-0.441 0.441s-0.441-0.197-0.441-0.441c0-0.243 0.197-0.441 0.441-0.441s0.441 0.197 0.441 0.441z"></path>
<path fill="#e0e0e0" style="fill: var(--color7, #e0e0e0)" opacity="0.348958" d="M23.176 10.014c0 0.243-0.197 0.441-0.441 0.441s-0.441-0.197-0.441-0.441c0-0.243 0.197-0.441 0.441-0.441s0.441 0.197 0.441 0.441z"></path>
<path fill="#e0e0e0" style="fill: var(--color7, #e0e0e0)" opacity="0.348958" d="M23.176 11.651c0 0.243-0.197 0.441-0.441 0.441s-0.441-0.197-0.441-0.441c0-0.243 0.197-0.441 0.441-0.441s0.441 0.197 0.441 0.441z"></path>
<path fill="#e0e0e0" style="fill: var(--color7, #e0e0e0)" opacity="0.348958" d="M23.176 13.162c0 0.243-0.197 0.441-0.441 0.441s-0.441-0.197-0.441-0.441c0-0.243 0.197-0.441 0.441-0.441s0.441 0.197 0.441 0.441z"></path>
<path fill="#e0e0e0" style="fill: var(--color7, #e0e0e0)" opacity="0.348958" d="M23.176 14.8c0 0.243-0.197 0.441-0.441 0.441s-0.441-0.197-0.441-0.441c0-0.243 0.197-0.441 0.441-0.441s0.441 0.197 0.441 0.441z"></path>
<path fill="#e0e0e0" style="fill: var(--color7, #e0e0e0)" opacity="0.348958" d="M23.176 16.437c0 0.243-0.197 0.441-0.441 0.441s-0.441-0.197-0.441-0.441c0-0.243 0.197-0.441 0.441-0.441s0.441 0.197 0.441 0.441z"></path>
<path fill="#e0e0e0" style="fill: var(--color7, #e0e0e0)" opacity="0.348958" d="M23.176 17.949c0 0.243-0.197 0.441-0.441 0.441s-0.441-0.197-0.441-0.441c0-0.243 0.197-0.441 0.441-0.441s0.441 0.197 0.441 0.441z"></path>
<path fill="#e0e0e0" style="fill: var(--color7, #e0e0e0)" opacity="0.348958" d="M23.176 19.586c0 0.243-0.197 0.441-0.441 0.441s-0.441-0.197-0.441-0.441c0-0.243 0.197-0.441 0.441-0.441s0.441 0.197 0.441 0.441z"></path>
<path fill="#e0e0e0" style="fill: var(--color7, #e0e0e0)" opacity="0.348958" d="M23.176 21.224c0 0.243-0.197 0.441-0.441 0.441s-0.441-0.197-0.441-0.441c0-0.243 0.197-0.441 0.441-0.441s0.441 0.197 0.441 0.441z"></path>
<path fill="#e0e0e0" style="fill: var(--color7, #e0e0e0)" opacity="0.348958" d="M23.176 22.735c0 0.243-0.197 0.441-0.441 0.441s-0.441-0.197-0.441-0.441c0-0.243 0.197-0.441 0.441-0.441s0.441 0.197 0.441 0.441z"></path>
<path fill="#e0e0e0" style="fill: var(--color7, #e0e0e0)" opacity="0.348958" d="M23.176 24.373c0 0.243-0.197 0.441-0.441 0.441s-0.441-0.197-0.441-0.441c0-0.243 0.197-0.441 0.441-0.441s0.441 0.197 0.441 0.441z"></path>
<path fill="#e0e0e0" style="fill: var(--color7, #e0e0e0)" opacity="0.348958" d="M23.176 26.010c0 0.243-0.197 0.441-0.441 0.441s-0.441-0.197-0.441-0.441c0-0.243 0.197-0.441 0.441-0.441s0.441 0.197 0.441 0.441z"></path>
<path fill="#e0e0e0" style="fill: var(--color7, #e0e0e0)" opacity="0.348958" d="M23.176 27.648c0 0.243-0.197 0.441-0.441 0.441s-0.441-0.197-0.441-0.441c0-0.243 0.197-0.441 0.441-0.441s0.441 0.197 0.441 0.441z"></path>
<path fill="#e0e0e0" style="fill: var(--color7, #e0e0e0)" opacity="0.348958" d="M23.176 29.159c0 0.243-0.197 0.441-0.441 0.441s-0.441-0.197-0.441-0.441c0-0.243 0.197-0.441 0.441-0.441s0.441 0.197 0.441 0.441z"></path>
<path fill="#e0e0e0" style="fill: var(--color7, #e0e0e0)" opacity="0.348958" d="M23.176 30.796c0 0.243-0.197 0.441-0.441 0.441s-0.441-0.197-0.441-0.441c0-0.243 0.197-0.441 0.441-0.441s0.441 0.197 0.441 0.441z"></path>
<path fill="#e0e0e0" style="fill: var(--color7, #e0e0e0)" opacity="0.348958" d="M24.814 0.441c0 0.243-0.197 0.441-0.441 0.441s-0.441-0.197-0.441-0.441c0-0.243 0.197-0.441 0.441-0.441s0.441 0.197 0.441 0.441z"></path>
<path fill="#e0e0e0" style="fill: var(--color7, #e0e0e0)" opacity="0.348958" d="M24.814 1.952c0 0.243-0.197 0.441-0.441 0.441s-0.441-0.197-0.441-0.441c0-0.243 0.197-0.441 0.441-0.441s0.441 0.197 0.441 0.441z"></path>
<path fill="#e0e0e0" style="fill: var(--color7, #e0e0e0)" opacity="0.348958" d="M24.814 3.59c0 0.243-0.197 0.441-0.441 0.441s-0.441-0.197-0.441-0.441c0-0.243 0.197-0.441 0.441-0.441s0.441 0.197 0.441 0.441z"></path>
<path fill="#e0e0e0" style="fill: var(--color7, #e0e0e0)" opacity="0.348958" d="M24.814 5.227c0 0.243-0.197 0.441-0.441 0.441s-0.441-0.197-0.441-0.441c0-0.243 0.197-0.441 0.441-0.441s0.441 0.197 0.441 0.441z"></path>
<path fill="#e0e0e0" style="fill: var(--color7, #e0e0e0)" opacity="0.348958" d="M24.814 6.739c0 0.243-0.197 0.441-0.441 0.441s-0.441-0.197-0.441-0.441c0-0.243 0.197-0.441 0.441-0.441s0.441 0.197 0.441 0.441z"></path>
<path fill="#e0e0e0" style="fill: var(--color7, #e0e0e0)" opacity="0.348958" d="M24.814 8.376c0 0.243-0.197 0.441-0.441 0.441s-0.441-0.197-0.441-0.441c0-0.243 0.197-0.441 0.441-0.441s0.441 0.197 0.441 0.441z"></path>
<path fill="#e0e0e0" style="fill: var(--color7, #e0e0e0)" opacity="0.348958" d="M24.814 10.014c0 0.243-0.197 0.441-0.441 0.441s-0.441-0.197-0.441-0.441c0-0.243 0.197-0.441 0.441-0.441s0.441 0.197 0.441 0.441z"></path>
<path fill="#e0e0e0" style="fill: var(--color7, #e0e0e0)" opacity="0.348958" d="M24.814 11.651c0 0.243-0.197 0.441-0.441 0.441s-0.441-0.197-0.441-0.441c0-0.243 0.197-0.441 0.441-0.441s0.441 0.197 0.441 0.441z"></path>
<path fill="#e0e0e0" style="fill: var(--color7, #e0e0e0)" opacity="0.348958" d="M24.814 13.162c0 0.243-0.197 0.441-0.441 0.441s-0.441-0.197-0.441-0.441c0-0.243 0.197-0.441 0.441-0.441s0.441 0.197 0.441 0.441z"></path>
<path fill="#e0e0e0" style="fill: var(--color7, #e0e0e0)" opacity="0.348958" d="M24.814 14.8c0 0.243-0.197 0.441-0.441 0.441s-0.441-0.197-0.441-0.441c0-0.243 0.197-0.441 0.441-0.441s0.441 0.197 0.441 0.441z"></path>
<path fill="#e0e0e0" style="fill: var(--color7, #e0e0e0)" opacity="0.348958" d="M24.814 16.437c0 0.243-0.197 0.441-0.441 0.441s-0.441-0.197-0.441-0.441c0-0.243 0.197-0.441 0.441-0.441s0.441 0.197 0.441 0.441z"></path>
<path fill="#e0e0e0" style="fill: var(--color7, #e0e0e0)" opacity="0.348958" d="M24.814 17.949c0 0.243-0.197 0.441-0.441 0.441s-0.441-0.197-0.441-0.441c0-0.243 0.197-0.441 0.441-0.441s0.441 0.197 0.441 0.441z"></path>
<path fill="#e0e0e0" style="fill: var(--color7, #e0e0e0)" opacity="0.348958" d="M24.814 19.586c0 0.243-0.197 0.441-0.441 0.441s-0.441-0.197-0.441-0.441c0-0.243 0.197-0.441 0.441-0.441s0.441 0.197 0.441 0.441z"></path>
<path fill="#e0e0e0" style="fill: var(--color7, #e0e0e0)" opacity="0.348958" d="M24.814 21.224c0 0.243-0.197 0.441-0.441 0.441s-0.441-0.197-0.441-0.441c0-0.243 0.197-0.441 0.441-0.441s0.441 0.197 0.441 0.441z"></path>
<path fill="#e0e0e0" style="fill: var(--color7, #e0e0e0)" opacity="0.348958" d="M24.814 22.735c0 0.243-0.197 0.441-0.441 0.441s-0.441-0.197-0.441-0.441c0-0.243 0.197-0.441 0.441-0.441s0.441 0.197 0.441 0.441z"></path>
<path fill="#e0e0e0" style="fill: var(--color7, #e0e0e0)" opacity="0.348958" d="M24.814 24.373c0 0.243-0.197 0.441-0.441 0.441s-0.441-0.197-0.441-0.441c0-0.243 0.197-0.441 0.441-0.441s0.441 0.197 0.441 0.441z"></path>
<path fill="#e0e0e0" style="fill: var(--color7, #e0e0e0)" opacity="0.348958" d="M24.814 26.010c0 0.243-0.197 0.441-0.441 0.441s-0.441-0.197-0.441-0.441c0-0.243 0.197-0.441 0.441-0.441s0.441 0.197 0.441 0.441z"></path>
<path fill="#e0e0e0" style="fill: var(--color7, #e0e0e0)" opacity="0.348958" d="M24.814 27.648c0 0.243-0.197 0.441-0.441 0.441s-0.441-0.197-0.441-0.441c0-0.243 0.197-0.441 0.441-0.441s0.441 0.197 0.441 0.441z"></path>
<path fill="#e0e0e0" style="fill: var(--color7, #e0e0e0)" opacity="0.348958" d="M24.814 29.159c0 0.243-0.197 0.441-0.441 0.441s-0.441-0.197-0.441-0.441c0-0.243 0.197-0.441 0.441-0.441s0.441 0.197 0.441 0.441z"></path>
<path fill="#e0e0e0" style="fill: var(--color7, #e0e0e0)" opacity="0.348958" d="M24.814 30.796c0 0.243-0.197 0.441-0.441 0.441s-0.441-0.197-0.441-0.441c0-0.243 0.197-0.441 0.441-0.441s0.441 0.197 0.441 0.441z"></path>
<path fill="#e0e0e0" style="fill: var(--color7, #e0e0e0)" opacity="0.348958" d="M26.451 0.441c0 0.243-0.197 0.441-0.441 0.441s-0.441-0.197-0.441-0.441c0-0.243 0.197-0.441 0.441-0.441s0.441 0.197 0.441 0.441z"></path>
<path fill="#e0e0e0" style="fill: var(--color7, #e0e0e0)" opacity="0.348958" d="M26.451 1.952c0 0.243-0.197 0.441-0.441 0.441s-0.441-0.197-0.441-0.441c0-0.243 0.197-0.441 0.441-0.441s0.441 0.197 0.441 0.441z"></path>
<path fill="#e0e0e0" style="fill: var(--color7, #e0e0e0)" opacity="0.348958" d="M26.451 3.59c0 0.243-0.197 0.441-0.441 0.441s-0.441-0.197-0.441-0.441c0-0.243 0.197-0.441 0.441-0.441s0.441 0.197 0.441 0.441z"></path>
<path fill="#e0e0e0" style="fill: var(--color7, #e0e0e0)" opacity="0.348958" d="M26.451 5.227c0 0.243-0.197 0.441-0.441 0.441s-0.441-0.197-0.441-0.441c0-0.243 0.197-0.441 0.441-0.441s0.441 0.197 0.441 0.441z"></path>
<path fill="#e0e0e0" style="fill: var(--color7, #e0e0e0)" opacity="0.348958" d="M26.451 6.739c0 0.243-0.197 0.441-0.441 0.441s-0.441-0.197-0.441-0.441c0-0.243 0.197-0.441 0.441-0.441s0.441 0.197 0.441 0.441z"></path>
<path fill="#e0e0e0" style="fill: var(--color7, #e0e0e0)" opacity="0.348958" d="M26.451 8.376c0 0.243-0.197 0.441-0.441 0.441s-0.441-0.197-0.441-0.441c0-0.243 0.197-0.441 0.441-0.441s0.441 0.197 0.441 0.441z"></path>
<path fill="#e0e0e0" style="fill: var(--color7, #e0e0e0)" opacity="0.348958" d="M26.451 10.014c0 0.243-0.197 0.441-0.441 0.441s-0.441-0.197-0.441-0.441c0-0.243 0.197-0.441 0.441-0.441s0.441 0.197 0.441 0.441z"></path>
<path fill="#e0e0e0" style="fill: var(--color7, #e0e0e0)" opacity="0.348958" d="M26.451 11.651c0 0.243-0.197 0.441-0.441 0.441s-0.441-0.197-0.441-0.441c0-0.243 0.197-0.441 0.441-0.441s0.441 0.197 0.441 0.441z"></path>
<path fill="#e0e0e0" style="fill: var(--color7, #e0e0e0)" opacity="0.348958" d="M26.451 13.162c0 0.243-0.197 0.441-0.441 0.441s-0.441-0.197-0.441-0.441c0-0.243 0.197-0.441 0.441-0.441s0.441 0.197 0.441 0.441z"></path>
<path fill="#e0e0e0" style="fill: var(--color7, #e0e0e0)" opacity="0.348958" d="M26.451 14.8c0 0.243-0.197 0.441-0.441 0.441s-0.441-0.197-0.441-0.441c0-0.243 0.197-0.441 0.441-0.441s0.441 0.197 0.441 0.441z"></path>
<path fill="#e0e0e0" style="fill: var(--color7, #e0e0e0)" opacity="0.348958" d="M26.451 16.437c0 0.243-0.197 0.441-0.441 0.441s-0.441-0.197-0.441-0.441c0-0.243 0.197-0.441 0.441-0.441s0.441 0.197 0.441 0.441z"></path>
<path fill="#e0e0e0" style="fill: var(--color7, #e0e0e0)" opacity="0.348958" d="M26.451 17.949c0 0.243-0.197 0.441-0.441 0.441s-0.441-0.197-0.441-0.441c0-0.243 0.197-0.441 0.441-0.441s0.441 0.197 0.441 0.441z"></path>
<path fill="#e0e0e0" style="fill: var(--color7, #e0e0e0)" opacity="0.348958" d="M26.451 19.586c0 0.243-0.197 0.441-0.441 0.441s-0.441-0.197-0.441-0.441c0-0.243 0.197-0.441 0.441-0.441s0.441 0.197 0.441 0.441z"></path>
<path fill="#e0e0e0" style="fill: var(--color7, #e0e0e0)" opacity="0.348958" d="M26.451 21.224c0 0.243-0.197 0.441-0.441 0.441s-0.441-0.197-0.441-0.441c0-0.243 0.197-0.441 0.441-0.441s0.441 0.197 0.441 0.441z"></path>
<path fill="#e0e0e0" style="fill: var(--color7, #e0e0e0)" opacity="0.348958" d="M26.451 22.735c0 0.243-0.197 0.441-0.441 0.441s-0.441-0.197-0.441-0.441c0-0.243 0.197-0.441 0.441-0.441s0.441 0.197 0.441 0.441z"></path>
<path fill="#e0e0e0" style="fill: var(--color7, #e0e0e0)" opacity="0.348958" d="M26.451 24.373c0 0.243-0.197 0.441-0.441 0.441s-0.441-0.197-0.441-0.441c0-0.243 0.197-0.441 0.441-0.441s0.441 0.197 0.441 0.441z"></path>
<path fill="#e0e0e0" style="fill: var(--color7, #e0e0e0)" opacity="0.348958" d="M26.451 26.010c0 0.243-0.197 0.441-0.441 0.441s-0.441-0.197-0.441-0.441c0-0.243 0.197-0.441 0.441-0.441s0.441 0.197 0.441 0.441z"></path>
<path fill="#e0e0e0" style="fill: var(--color7, #e0e0e0)" opacity="0.348958" d="M26.451 27.648c0 0.243-0.197 0.441-0.441 0.441s-0.441-0.197-0.441-0.441c0-0.243 0.197-0.441 0.441-0.441s0.441 0.197 0.441 0.441z"></path>
<path fill="#e0e0e0" style="fill: var(--color7, #e0e0e0)" opacity="0.348958" d="M26.451 29.159c0 0.243-0.197 0.441-0.441 0.441s-0.441-0.197-0.441-0.441c0-0.243 0.197-0.441 0.441-0.441s0.441 0.197 0.441 0.441z"></path>
<path fill="#e0e0e0" style="fill: var(--color7, #e0e0e0)" opacity="0.348958" d="M26.451 30.796c0 0.243-0.197 0.441-0.441 0.441s-0.441-0.197-0.441-0.441c0-0.243 0.197-0.441 0.441-0.441s0.441 0.197 0.441 0.441z"></path>
<path fill="#e0e0e0" style="fill: var(--color7, #e0e0e0)" opacity="0.348958" d="M28.088 0.441c0 0.243-0.197 0.441-0.441 0.441s-0.441-0.197-0.441-0.441c0-0.243 0.197-0.441 0.441-0.441s0.441 0.197 0.441 0.441z"></path>
<path fill="#e0e0e0" style="fill: var(--color7, #e0e0e0)" opacity="0.348958" d="M28.088 1.952c0 0.243-0.197 0.441-0.441 0.441s-0.441-0.197-0.441-0.441c0-0.243 0.197-0.441 0.441-0.441s0.441 0.197 0.441 0.441z"></path>
<path fill="#e0e0e0" style="fill: var(--color7, #e0e0e0)" opacity="0.348958" d="M28.088 3.59c0 0.243-0.197 0.441-0.441 0.441s-0.441-0.197-0.441-0.441c0-0.243 0.197-0.441 0.441-0.441s0.441 0.197 0.441 0.441z"></path>
<path fill="#e0e0e0" style="fill: var(--color7, #e0e0e0)" opacity="0.348958" d="M28.088 5.227c0 0.243-0.197 0.441-0.441 0.441s-0.441-0.197-0.441-0.441c0-0.243 0.197-0.441 0.441-0.441s0.441 0.197 0.441 0.441z"></path>
<path fill="#e0e0e0" style="fill: var(--color7, #e0e0e0)" opacity="0.348958" d="M28.088 6.739c0 0.243-0.197 0.441-0.441 0.441s-0.441-0.197-0.441-0.441c0-0.243 0.197-0.441 0.441-0.441s0.441 0.197 0.441 0.441z"></path>
<path fill="#e0e0e0" style="fill: var(--color7, #e0e0e0)" opacity="0.348958" d="M28.088 8.376c0 0.243-0.197 0.441-0.441 0.441s-0.441-0.197-0.441-0.441c0-0.243 0.197-0.441 0.441-0.441s0.441 0.197 0.441 0.441z"></path>
<path fill="#e0e0e0" style="fill: var(--color7, #e0e0e0)" opacity="0.348958" d="M28.088 10.014c0 0.243-0.197 0.441-0.441 0.441s-0.441-0.197-0.441-0.441c0-0.243 0.197-0.441 0.441-0.441s0.441 0.197 0.441 0.441z"></path>
<path fill="#e0e0e0" style="fill: var(--color7, #e0e0e0)" opacity="0.348958" d="M28.088 11.651c0 0.243-0.197 0.441-0.441 0.441s-0.441-0.197-0.441-0.441c0-0.243 0.197-0.441 0.441-0.441s0.441 0.197 0.441 0.441z"></path>
<path fill="#e0e0e0" style="fill: var(--color7, #e0e0e0)" opacity="0.348958" d="M28.088 13.162c0 0.243-0.197 0.441-0.441 0.441s-0.441-0.197-0.441-0.441c0-0.243 0.197-0.441 0.441-0.441s0.441 0.197 0.441 0.441z"></path>
<path fill="#e0e0e0" style="fill: var(--color7, #e0e0e0)" opacity="0.348958" d="M28.088 14.8c0 0.243-0.197 0.441-0.441 0.441s-0.441-0.197-0.441-0.441c0-0.243 0.197-0.441 0.441-0.441s0.441 0.197 0.441 0.441z"></path>
<path fill="#e0e0e0" style="fill: var(--color7, #e0e0e0)" opacity="0.348958" d="M28.088 16.437c0 0.243-0.197 0.441-0.441 0.441s-0.441-0.197-0.441-0.441c0-0.243 0.197-0.441 0.441-0.441s0.441 0.197 0.441 0.441z"></path>
<path fill="#e0e0e0" style="fill: var(--color7, #e0e0e0)" opacity="0.348958" d="M28.088 17.949c0 0.243-0.197 0.441-0.441 0.441s-0.441-0.197-0.441-0.441c0-0.243 0.197-0.441 0.441-0.441s0.441 0.197 0.441 0.441z"></path>
<path fill="#e0e0e0" style="fill: var(--color7, #e0e0e0)" opacity="0.348958" d="M28.088 19.586c0 0.243-0.197 0.441-0.441 0.441s-0.441-0.197-0.441-0.441c0-0.243 0.197-0.441 0.441-0.441s0.441 0.197 0.441 0.441z"></path>
<path fill="#e0e0e0" style="fill: var(--color7, #e0e0e0)" opacity="0.348958" d="M28.088 21.224c0 0.243-0.197 0.441-0.441 0.441s-0.441-0.197-0.441-0.441c0-0.243 0.197-0.441 0.441-0.441s0.441 0.197 0.441 0.441z"></path>
<path fill="#e0e0e0" style="fill: var(--color7, #e0e0e0)" opacity="0.348958" d="M28.088 22.735c0 0.243-0.197 0.441-0.441 0.441s-0.441-0.197-0.441-0.441c0-0.243 0.197-0.441 0.441-0.441s0.441 0.197 0.441 0.441z"></path>
<path fill="#e0e0e0" style="fill: var(--color7, #e0e0e0)" opacity="0.348958" d="M28.088 24.373c0 0.243-0.197 0.441-0.441 0.441s-0.441-0.197-0.441-0.441c0-0.243 0.197-0.441 0.441-0.441s0.441 0.197 0.441 0.441z"></path>
<path fill="#e0e0e0" style="fill: var(--color7, #e0e0e0)" opacity="0.348958" d="M28.088 26.010c0 0.243-0.197 0.441-0.441 0.441s-0.441-0.197-0.441-0.441c0-0.243 0.197-0.441 0.441-0.441s0.441 0.197 0.441 0.441z"></path>
<path fill="#e0e0e0" style="fill: var(--color7, #e0e0e0)" opacity="0.348958" d="M28.088 27.648c0 0.243-0.197 0.441-0.441 0.441s-0.441-0.197-0.441-0.441c0-0.243 0.197-0.441 0.441-0.441s0.441 0.197 0.441 0.441z"></path>
<path fill="#e0e0e0" style="fill: var(--color7, #e0e0e0)" opacity="0.348958" d="M28.088 29.159c0 0.243-0.197 0.441-0.441 0.441s-0.441-0.197-0.441-0.441c0-0.243 0.197-0.441 0.441-0.441s0.441 0.197 0.441 0.441z"></path>
<path fill="#e0e0e0" style="fill: var(--color7, #e0e0e0)" opacity="0.348958" d="M28.088 30.796c0 0.243-0.197 0.441-0.441 0.441s-0.441-0.197-0.441-0.441c0-0.243 0.197-0.441 0.441-0.441s0.441 0.197 0.441 0.441z"></path>
<path fill="#e0e0e0" style="fill: var(--color7, #e0e0e0)" opacity="0.348958" d="M29.6 0.441c0 0.243-0.197 0.441-0.441 0.441s-0.441-0.197-0.441-0.441c0-0.243 0.197-0.441 0.441-0.441s0.441 0.197 0.441 0.441z"></path>
<path fill="#e0e0e0" style="fill: var(--color7, #e0e0e0)" opacity="0.348958" d="M29.6 1.952c0 0.243-0.197 0.441-0.441 0.441s-0.441-0.197-0.441-0.441c0-0.243 0.197-0.441 0.441-0.441s0.441 0.197 0.441 0.441z"></path>
<path fill="#e0e0e0" style="fill: var(--color7, #e0e0e0)" opacity="0.348958" d="M29.6 3.59c0 0.243-0.197 0.441-0.441 0.441s-0.441-0.197-0.441-0.441c0-0.243 0.197-0.441 0.441-0.441s0.441 0.197 0.441 0.441z"></path>
<path fill="#e0e0e0" style="fill: var(--color7, #e0e0e0)" opacity="0.348958" d="M29.6 5.227c0 0.243-0.197 0.441-0.441 0.441s-0.441-0.197-0.441-0.441c0-0.243 0.197-0.441 0.441-0.441s0.441 0.197 0.441 0.441z"></path>
<path fill="#e0e0e0" style="fill: var(--color7, #e0e0e0)" opacity="0.348958" d="M29.6 6.739c0 0.243-0.197 0.441-0.441 0.441s-0.441-0.197-0.441-0.441c0-0.243 0.197-0.441 0.441-0.441s0.441 0.197 0.441 0.441z"></path>
<path fill="#e0e0e0" style="fill: var(--color7, #e0e0e0)" opacity="0.348958" d="M29.6 8.376c0 0.243-0.197 0.441-0.441 0.441s-0.441-0.197-0.441-0.441c0-0.243 0.197-0.441 0.441-0.441s0.441 0.197 0.441 0.441z"></path>
<path fill="#e0e0e0" style="fill: var(--color7, #e0e0e0)" opacity="0.348958" d="M29.6 10.014c0 0.243-0.197 0.441-0.441 0.441s-0.441-0.197-0.441-0.441c0-0.243 0.197-0.441 0.441-0.441s0.441 0.197 0.441 0.441z"></path>
<path fill="#e0e0e0" style="fill: var(--color7, #e0e0e0)" opacity="0.348958" d="M29.6 11.651c0 0.243-0.197 0.441-0.441 0.441s-0.441-0.197-0.441-0.441c0-0.243 0.197-0.441 0.441-0.441s0.441 0.197 0.441 0.441z"></path>
<path fill="#e0e0e0" style="fill: var(--color7, #e0e0e0)" opacity="0.348958" d="M29.6 13.162c0 0.243-0.197 0.441-0.441 0.441s-0.441-0.197-0.441-0.441c0-0.243 0.197-0.441 0.441-0.441s0.441 0.197 0.441 0.441z"></path>
<path fill="#e0e0e0" style="fill: var(--color7, #e0e0e0)" opacity="0.348958" d="M29.6 14.8c0 0.243-0.197 0.441-0.441 0.441s-0.441-0.197-0.441-0.441c0-0.243 0.197-0.441 0.441-0.441s0.441 0.197 0.441 0.441z"></path>
<path fill="#e0e0e0" style="fill: var(--color7, #e0e0e0)" opacity="0.348958" d="M29.6 16.437c0 0.243-0.197 0.441-0.441 0.441s-0.441-0.197-0.441-0.441c0-0.243 0.197-0.441 0.441-0.441s0.441 0.197 0.441 0.441z"></path>
<path fill="#e0e0e0" style="fill: var(--color7, #e0e0e0)" opacity="0.348958" d="M29.6 17.949c0 0.243-0.197 0.441-0.441 0.441s-0.441-0.197-0.441-0.441c0-0.243 0.197-0.441 0.441-0.441s0.441 0.197 0.441 0.441z"></path>
<path fill="#e0e0e0" style="fill: var(--color7, #e0e0e0)" opacity="0.348958" d="M29.6 19.586c0 0.243-0.197 0.441-0.441 0.441s-0.441-0.197-0.441-0.441c0-0.243 0.197-0.441 0.441-0.441s0.441 0.197 0.441 0.441z"></path>
<path fill="#e0e0e0" style="fill: var(--color7, #e0e0e0)" opacity="0.348958" d="M29.6 21.224c0 0.243-0.197 0.441-0.441 0.441s-0.441-0.197-0.441-0.441c0-0.243 0.197-0.441 0.441-0.441s0.441 0.197 0.441 0.441z"></path>
<path fill="#e0e0e0" style="fill: var(--color7, #e0e0e0)" opacity="0.348958" d="M29.6 22.735c0 0.243-0.197 0.441-0.441 0.441s-0.441-0.197-0.441-0.441c0-0.243 0.197-0.441 0.441-0.441s0.441 0.197 0.441 0.441z"></path>
<path fill="#e0e0e0" style="fill: var(--color7, #e0e0e0)" opacity="0.348958" d="M29.6 24.373c0 0.243-0.197 0.441-0.441 0.441s-0.441-0.197-0.441-0.441c0-0.243 0.197-0.441 0.441-0.441s0.441 0.197 0.441 0.441z"></path>
<path fill="#e0e0e0" style="fill: var(--color7, #e0e0e0)" opacity="0.348958" d="M29.6 26.010c0 0.243-0.197 0.441-0.441 0.441s-0.441-0.197-0.441-0.441c0-0.243 0.197-0.441 0.441-0.441s0.441 0.197 0.441 0.441z"></path>
<path fill="#e0e0e0" style="fill: var(--color7, #e0e0e0)" opacity="0.348958" d="M29.6 27.648c0 0.243-0.197 0.441-0.441 0.441s-0.441-0.197-0.441-0.441c0-0.243 0.197-0.441 0.441-0.441s0.441 0.197 0.441 0.441z"></path>
<path fill="#e0e0e0" style="fill: var(--color7, #e0e0e0)" opacity="0.348958" d="M29.6 29.159c0 0.243-0.197 0.441-0.441 0.441s-0.441-0.197-0.441-0.441c0-0.243 0.197-0.441 0.441-0.441s0.441 0.197 0.441 0.441z"></path>
<path fill="#e0e0e0" style="fill: var(--color7, #e0e0e0)" opacity="0.348958" d="M29.6 30.796c0 0.243-0.197 0.441-0.441 0.441s-0.441-0.197-0.441-0.441c0-0.243 0.197-0.441 0.441-0.441s0.441 0.197 0.441 0.441z"></path>
<path fill="#e0e0e0" style="fill: var(--color7, #e0e0e0)" opacity="0.348958" d="M31.237 0.441c0 0.243-0.197 0.441-0.441 0.441s-0.441-0.197-0.441-0.441c0-0.243 0.197-0.441 0.441-0.441s0.441 0.197 0.441 0.441z"></path>
<path fill="#e0e0e0" style="fill: var(--color7, #e0e0e0)" opacity="0.348958" d="M31.237 1.952c0 0.243-0.197 0.441-0.441 0.441s-0.441-0.197-0.441-0.441c0-0.243 0.197-0.441 0.441-0.441s0.441 0.197 0.441 0.441z"></path>
<path fill="#e0e0e0" style="fill: var(--color7, #e0e0e0)" opacity="0.348958" d="M31.237 3.59c0 0.243-0.197 0.441-0.441 0.441s-0.441-0.197-0.441-0.441c0-0.243 0.197-0.441 0.441-0.441s0.441 0.197 0.441 0.441z"></path>
<path fill="#e0e0e0" style="fill: var(--color7, #e0e0e0)" opacity="0.348958" d="M31.237 5.227c0 0.243-0.197 0.441-0.441 0.441s-0.441-0.197-0.441-0.441c0-0.243 0.197-0.441 0.441-0.441s0.441 0.197 0.441 0.441z"></path>
<path fill="#e0e0e0" style="fill: var(--color7, #e0e0e0)" opacity="0.348958" d="M31.237 6.739c0 0.243-0.197 0.441-0.441 0.441s-0.441-0.197-0.441-0.441c0-0.243 0.197-0.441 0.441-0.441s0.441 0.197 0.441 0.441z"></path>
<path fill="#e0e0e0" style="fill: var(--color7, #e0e0e0)" opacity="0.348958" d="M31.237 8.376c0 0.243-0.197 0.441-0.441 0.441s-0.441-0.197-0.441-0.441c0-0.243 0.197-0.441 0.441-0.441s0.441 0.197 0.441 0.441z"></path>
<path fill="#e0e0e0" style="fill: var(--color7, #e0e0e0)" opacity="0.348958" d="M31.237 10.014c0 0.243-0.197 0.441-0.441 0.441s-0.441-0.197-0.441-0.441c0-0.243 0.197-0.441 0.441-0.441s0.441 0.197 0.441 0.441z"></path>
<path fill="#e0e0e0" style="fill: var(--color7, #e0e0e0)" opacity="0.348958" d="M31.237 11.651c0 0.243-0.197 0.441-0.441 0.441s-0.441-0.197-0.441-0.441c0-0.243 0.197-0.441 0.441-0.441s0.441 0.197 0.441 0.441z"></path>
<path fill="#e0e0e0" style="fill: var(--color7, #e0e0e0)" opacity="0.348958" d="M31.237 13.162c0 0.243-0.197 0.441-0.441 0.441s-0.441-0.197-0.441-0.441c0-0.243 0.197-0.441 0.441-0.441s0.441 0.197 0.441 0.441z"></path>
<path fill="#e0e0e0" style="fill: var(--color7, #e0e0e0)" opacity="0.348958" d="M31.237 14.8c0 0.243-0.197 0.441-0.441 0.441s-0.441-0.197-0.441-0.441c0-0.243 0.197-0.441 0.441-0.441s0.441 0.197 0.441 0.441z"></path>
<path fill="#e0e0e0" style="fill: var(--color7, #e0e0e0)" opacity="0.348958" d="M31.237 16.437c0 0.243-0.197 0.441-0.441 0.441s-0.441-0.197-0.441-0.441c0-0.243 0.197-0.441 0.441-0.441s0.441 0.197 0.441 0.441z"></path>
<path fill="#e0e0e0" style="fill: var(--color7, #e0e0e0)" opacity="0.348958" d="M31.237 17.949c0 0.243-0.197 0.441-0.441 0.441s-0.441-0.197-0.441-0.441c0-0.243 0.197-0.441 0.441-0.441s0.441 0.197 0.441 0.441z"></path>
<path fill="#e0e0e0" style="fill: var(--color7, #e0e0e0)" opacity="0.348958" d="M31.237 19.586c0 0.243-0.197 0.441-0.441 0.441s-0.441-0.197-0.441-0.441c0-0.243 0.197-0.441 0.441-0.441s0.441 0.197 0.441 0.441z"></path>
<path fill="#e0e0e0" style="fill: var(--color7, #e0e0e0)" opacity="0.348958" d="M31.237 21.224c0 0.243-0.197 0.441-0.441 0.441s-0.441-0.197-0.441-0.441c0-0.243 0.197-0.441 0.441-0.441s0.441 0.197 0.441 0.441z"></path>
<path fill="#e0e0e0" style="fill: var(--color7, #e0e0e0)" opacity="0.348958" d="M31.237 22.735c0 0.243-0.197 0.441-0.441 0.441s-0.441-0.197-0.441-0.441c0-0.243 0.197-0.441 0.441-0.441s0.441 0.197 0.441 0.441z"></path>
<path fill="#e0e0e0" style="fill: var(--color7, #e0e0e0)" opacity="0.348958" d="M31.237 24.373c0 0.243-0.197 0.441-0.441 0.441s-0.441-0.197-0.441-0.441c0-0.243 0.197-0.441 0.441-0.441s0.441 0.197 0.441 0.441z"></path>
<path fill="#e0e0e0" style="fill: var(--color7, #e0e0e0)" opacity="0.348958" d="M31.237 26.010c0 0.243-0.197 0.441-0.441 0.441s-0.441-0.197-0.441-0.441c0-0.243 0.197-0.441 0.441-0.441s0.441 0.197 0.441 0.441z"></path>
<path fill="#e0e0e0" style="fill: var(--color7, #e0e0e0)" opacity="0.348958" d="M31.237 27.648c0 0.243-0.197 0.441-0.441 0.441s-0.441-0.197-0.441-0.441c0-0.243 0.197-0.441 0.441-0.441s0.441 0.197 0.441 0.441z"></path>
<path fill="#e0e0e0" style="fill: var(--color7, #e0e0e0)" opacity="0.348958" d="M31.237 29.159c0 0.243-0.197 0.441-0.441 0.441s-0.441-0.197-0.441-0.441c0-0.243 0.197-0.441 0.441-0.441s0.441 0.197 0.441 0.441z"></path>
<path fill="#e0e0e0" style="fill: var(--color7, #e0e0e0)" opacity="0.348958" d="M31.237 30.796c0 0.243-0.197 0.441-0.441 0.441s-0.441-0.197-0.441-0.441c0-0.243 0.197-0.441 0.441-0.441s0.441 0.197 0.441 0.441z"></path>
</symbol>
<symbol id="icon-Telegraph" viewBox="12 10 9 9">
<path fill="#ff0043" style="fill: var(--color1, #ff0043)" d="M2.742 12.685v5.112h-1.050v-5.112h1.050zM4.315 12.685v0.825h-4.171v-0.825h4.171zM6.271 17.868c-0.295 0-0.559-0.047-0.794-0.14-0.234-0.096-0.433-0.228-0.597-0.397-0.162-0.169-0.286-0.364-0.372-0.586-0.087-0.225-0.13-0.463-0.13-0.716v-0.14c0-0.288 0.041-0.551 0.123-0.79s0.199-0.446 0.351-0.621c0.154-0.176 0.342-0.31 0.562-0.404 0.22-0.096 0.468-0.144 0.744-0.144 0.269 0 0.508 0.044 0.716 0.133s0.383 0.215 0.523 0.379c0.143 0.164 0.25 0.361 0.323 0.59 0.073 0.227 0.109 0.48 0.109 0.758v0.421h-3.020v-0.674h2.026v-0.077c0-0.14-0.026-0.266-0.077-0.376-0.049-0.112-0.124-0.201-0.225-0.267s-0.229-0.098-0.386-0.098c-0.133 0-0.248 0.029-0.344 0.088s-0.174 0.14-0.235 0.246c-0.059 0.105-0.103 0.229-0.133 0.372-0.028 0.14-0.042 0.295-0.042 0.463v0.14c0 0.152 0.021 0.293 0.063 0.421 0.044 0.129 0.106 0.24 0.186 0.334 0.082 0.094 0.18 0.166 0.295 0.218 0.117 0.052 0.249 0.077 0.397 0.077 0.183 0 0.352-0.035 0.509-0.105 0.159-0.073 0.296-0.181 0.411-0.327l0.492 0.534c-0.080 0.115-0.188 0.225-0.327 0.33-0.136 0.105-0.3 0.192-0.492 0.26-0.192 0.066-0.411 0.098-0.657 0.098zM9.473 12.405v5.393h-1.015v-5.393h1.015zM12.058 17.868c-0.295 0-0.559-0.047-0.794-0.14-0.234-0.096-0.433-0.228-0.597-0.397-0.162-0.169-0.286-0.364-0.372-0.586-0.087-0.225-0.13-0.463-0.13-0.716v-0.14c0-0.288 0.041-0.551 0.123-0.79s0.199-0.446 0.351-0.621c0.155-0.176 0.342-0.31 0.562-0.404 0.22-0.096 0.468-0.144 0.744-0.144 0.269 0 0.508 0.044 0.716 0.133s0.383 0.215 0.523 0.379c0.143 0.164 0.25 0.361 0.323 0.59 0.073 0.227 0.109 0.48 0.109 0.758v0.421h-3.020v-0.674h2.026v-0.077c0-0.14-0.026-0.266-0.077-0.376-0.049-0.112-0.124-0.201-0.225-0.267s-0.229-0.098-0.386-0.098c-0.133 0-0.248 0.029-0.344 0.088s-0.174 0.14-0.235 0.246c-0.059 0.105-0.103 0.229-0.133 0.372-0.028 0.14-0.042 0.295-0.042 0.463v0.14c0 0.152 0.021 0.293 0.063 0.421 0.044 0.129 0.107 0.24 0.186 0.334 0.082 0.094 0.18 0.166 0.295 0.218 0.117 0.052 0.249 0.077 0.397 0.077 0.183 0 0.352-0.035 0.509-0.105 0.159-0.073 0.296-0.181 0.411-0.327l0.492 0.534c-0.080 0.115-0.188 0.225-0.327 0.33-0.136 0.105-0.3 0.192-0.492 0.26-0.192 0.066-0.411 0.098-0.657 0.098zM16.598 13.999h0.916v3.673c0 0.346-0.077 0.64-0.232 0.881-0.152 0.243-0.365 0.427-0.639 0.551-0.274 0.126-0.592 0.19-0.955 0.19-0.159 0-0.328-0.021-0.506-0.063-0.176-0.042-0.344-0.108-0.506-0.197-0.159-0.089-0.293-0.201-0.4-0.337l0.446-0.597c0.117 0.136 0.253 0.241 0.407 0.316 0.155 0.077 0.325 0.116 0.513 0.116 0.183 0 0.337-0.034 0.463-0.102 0.126-0.066 0.224-0.163 0.291-0.291 0.068-0.126 0.102-0.28 0.102-0.46v-2.802l0.098-0.878zM14.041 15.944v-0.074c0-0.29 0.035-0.554 0.105-0.79 0.073-0.239 0.174-0.444 0.305-0.614 0.133-0.171 0.295-0.303 0.485-0.397s0.404-0.14 0.643-0.14c0.253 0 0.465 0.047 0.636 0.14s0.311 0.227 0.421 0.4c0.11 0.171 0.195 0.373 0.256 0.607 0.063 0.232 0.112 0.486 0.148 0.762v0.162c-0.035 0.265-0.088 0.51-0.158 0.737s-0.163 0.426-0.277 0.597c-0.115 0.169-0.257 0.3-0.428 0.393-0.169 0.094-0.37 0.14-0.604 0.14s-0.446-0.048-0.636-0.144c-0.187-0.096-0.348-0.231-0.481-0.404s-0.236-0.377-0.309-0.611c-0.070-0.234-0.105-0.489-0.105-0.765zM15.053 15.87v0.074c0 0.157 0.015 0.303 0.046 0.439s0.077 0.256 0.14 0.362c0.066 0.103 0.146 0.184 0.242 0.242 0.098 0.056 0.214 0.084 0.348 0.084 0.185 0 0.336-0.039 0.453-0.116 0.117-0.080 0.205-0.188 0.263-0.327s0.092-0.297 0.102-0.478v-0.46c-0.005-0.147-0.025-0.28-0.060-0.397-0.035-0.119-0.084-0.221-0.147-0.305s-0.145-0.15-0.246-0.197c-0.101-0.047-0.22-0.070-0.358-0.070-0.133 0-0.249 0.030-0.348 0.091-0.096 0.059-0.177 0.139-0.242 0.242-0.063 0.103-0.111 0.225-0.144 0.365-0.033 0.138-0.049 0.288-0.049 0.449zM19.312 14.827v2.971h-1.011v-3.799h0.952l0.060 0.829zM20.456 13.974l-0.018 0.938c-0.049-0.007-0.109-0.013-0.179-0.018-0.068-0.007-0.13-0.011-0.186-0.011-0.143 0-0.267 0.019-0.372 0.056-0.103 0.035-0.19 0.088-0.26 0.158-0.068 0.070-0.119 0.156-0.154 0.256-0.033 0.101-0.052 0.215-0.056 0.344l-0.204-0.063c0-0.246 0.025-0.472 0.074-0.678 0.049-0.208 0.121-0.39 0.214-0.544 0.096-0.155 0.213-0.274 0.351-0.358s0.296-0.126 0.474-0.126c0.056 0 0.114 0.005 0.172 0.014 0.059 0.007 0.107 0.018 0.144 0.032zM22.865 16.941v-1.692c0-0.122-0.020-0.226-0.060-0.313-0.040-0.089-0.102-0.158-0.186-0.207-0.082-0.049-0.188-0.074-0.32-0.074-0.112 0-0.209 0.020-0.291 0.060-0.082 0.037-0.145 0.092-0.19 0.165-0.044 0.070-0.067 0.153-0.067 0.249h-1.011c0-0.162 0.037-0.315 0.112-0.46s0.184-0.273 0.327-0.383c0.143-0.112 0.313-0.2 0.509-0.263 0.199-0.063 0.421-0.095 0.667-0.095 0.295 0 0.557 0.049 0.787 0.147s0.41 0.246 0.541 0.442c0.133 0.197 0.2 0.442 0.2 0.737v1.626c0 0.208 0.013 0.379 0.039 0.513 0.026 0.131 0.063 0.246 0.112 0.344v0.060h-1.022c-0.049-0.103-0.087-0.232-0.112-0.386-0.023-0.157-0.035-0.314-0.035-0.471zM22.999 15.484l0.007 0.572h-0.565c-0.133 0-0.249 0.015-0.348 0.046s-0.179 0.074-0.242 0.13c-0.063 0.054-0.11 0.117-0.14 0.19-0.028 0.073-0.042 0.152-0.042 0.239s0.020 0.165 0.060 0.235c0.040 0.068 0.097 0.122 0.172 0.162 0.075 0.037 0.163 0.056 0.263 0.056 0.152 0 0.284-0.030 0.397-0.091s0.199-0.136 0.26-0.225c0.063-0.089 0.096-0.173 0.098-0.253l0.267 0.428c-0.037 0.096-0.089 0.195-0.154 0.298-0.063 0.103-0.144 0.2-0.242 0.291-0.098 0.089-0.217 0.163-0.355 0.221-0.138 0.056-0.302 0.084-0.492 0.084-0.241 0-0.46-0.048-0.657-0.144-0.194-0.098-0.349-0.233-0.463-0.404-0.112-0.173-0.169-0.37-0.169-0.59 0-0.199 0.037-0.376 0.112-0.53s0.185-0.284 0.33-0.39c0.147-0.108 0.331-0.188 0.551-0.242 0.22-0.056 0.475-0.084 0.765-0.084h0.586zM25.674 14.729v4.529h-1.011v-5.26h0.938l0.074 0.73zM28.079 15.856v0.074c0 0.276-0.033 0.533-0.098 0.769-0.063 0.236-0.157 0.442-0.281 0.618-0.124 0.173-0.279 0.309-0.463 0.407-0.183 0.096-0.393 0.144-0.632 0.144-0.232 0-0.433-0.047-0.604-0.14s-0.315-0.225-0.432-0.393c-0.115-0.171-0.207-0.369-0.277-0.593s-0.124-0.466-0.162-0.723v-0.193c0.037-0.276 0.091-0.529 0.162-0.758 0.070-0.232 0.163-0.432 0.277-0.6 0.117-0.171 0.26-0.303 0.428-0.397 0.171-0.094 0.371-0.14 0.6-0.14 0.241 0 0.453 0.046 0.636 0.137 0.185 0.091 0.339 0.222 0.463 0.393 0.126 0.171 0.221 0.375 0.284 0.611 0.066 0.236 0.098 0.499 0.098 0.787zM27.065 15.93v-0.074c0-0.162-0.014-0.31-0.042-0.446-0.026-0.138-0.068-0.259-0.126-0.362-0.056-0.103-0.131-0.183-0.225-0.239-0.091-0.059-0.203-0.088-0.334-0.088-0.138 0-0.256 0.022-0.355 0.067-0.096 0.044-0.174 0.109-0.235 0.193s-0.107 0.185-0.137 0.302c-0.030 0.117-0.049 0.249-0.056 0.397v0.488c0.012 0.173 0.044 0.329 0.098 0.467 0.054 0.136 0.137 0.243 0.249 0.323s0.26 0.119 0.442 0.119c0.133 0 0.246-0.029 0.337-0.088 0.091-0.061 0.165-0.144 0.221-0.249 0.059-0.105 0.099-0.227 0.123-0.365 0.026-0.138 0.039-0.287 0.039-0.446zM29.695 12.405v5.393h-1.011v-5.393h1.011zM29.551 15.765h-0.277c0.002-0.264 0.037-0.508 0.105-0.73 0.068-0.225 0.165-0.419 0.291-0.583 0.126-0.166 0.277-0.295 0.453-0.386 0.178-0.091 0.375-0.137 0.59-0.137 0.187 0 0.357 0.027 0.509 0.081 0.154 0.052 0.287 0.136 0.397 0.253 0.112 0.115 0.199 0.266 0.26 0.453s0.091 0.414 0.091 0.681v2.402h-1.018v-2.409c0-0.169-0.025-0.301-0.074-0.397-0.047-0.098-0.116-0.167-0.207-0.207-0.089-0.042-0.199-0.063-0.33-0.063-0.145 0-0.269 0.027-0.372 0.081-0.101 0.054-0.181 0.129-0.242 0.225-0.061 0.094-0.105 0.204-0.133 0.33s-0.042 0.262-0.042 0.407z"></path>
</symbol>
</defs>
</svg>
